<svg width="101" height="65" viewBox="0 0 101 65" fill="none" xmlns="http://www.w3.org/2000/svg">
<path d="M73.5056 31.9899V23.8283L64.5074 31.9899V43.2121L51.0101 57.495V64.6364L72.5058 43.2121V31.9899H73.5056Z" fill="white"/>
<path d="M62.5078 43.2121L51.0101 54.9445V37.0909H52.5098V27.399L78.0046 0.363647H101L88.0026 14.1364H71.506L62.5078 23.8283V43.2121Z" fill="white"/>
<path d="M64.0075 24.8485V29.9495L73.0057 20.2576H82.0038L86.003 16.1768H72.0059L64.0075 24.8485Z" fill="white"/>
<path d="M69.5064 5.97476L51.0101 25.3586V13.6263L59.0085 5.97476H69.5064Z" fill="white"/>
<path d="M28.0556 31.9899V23.8283L37.2374 31.9899V43.2121L51.0101 57.495V64.6364L29.0758 43.2121V31.9899H28.0556Z" fill="white"/>
<path d="M39.2778 43.2121L51.0101 54.9445V37.0909H49.4798V27.399L23.4646 0.363647H0L13.2626 14.1364H30.096L39.2778 23.8283V43.2121Z" fill="white"/>
<path d="M37.7475 24.8485V29.9495L28.5657 20.2576H19.3838L15.303 16.1768H29.5859L37.7475 24.8485Z" fill="white"/>
<path d="M32.1364 5.97476L51.0101 25.3586V13.6263L42.8485 5.97476H32.1364Z" fill="white"/>
</svg>
