<svg width="101" height="77" viewBox="0 0 101 77" fill="none" xmlns="http://www.w3.org/2000/svg">
<path d="M60.9483 20.5058L50.5 30.954V8.89658L60.9483 20.5058Z" fill="white"/>
<path d="M84.7471 21.0862L73.1379 33.2759V39.0805L84.7471 29.2127V21.0862Z" fill="white"/>
<path d="M50.5 69.2644V76.2299L71.3966 57.0747V34.4368L66.7529 39.0805V54.1724L50.5 69.2644Z" fill="white"/>
<path d="M51.6609 47.2069L50.5 47.7874V66.3621L64.431 53.0115V37.9196L101 1.3506H84.7471L51.6609 33.2759V47.2069Z" fill="white"/>
<path d="M40.0517 20.0738L50.5 30.6031V8.37461L40.0517 20.0738Z" fill="white"/>
<path d="M16.2529 20.6588L27.8621 32.9429V38.7925L16.2529 28.8482V20.6588Z" fill="white"/>
<path d="M50.5 69.2104V76.2299L29.6034 56.9263V34.1128L34.2471 38.7925V54.0015L50.5 69.2104Z" fill="white"/>
<path d="M49.3391 46.9819L50.5 47.5669V66.2856L36.569 52.8315V37.6226L0 0.770142H16.2529L49.3391 32.9429V46.9819Z" fill="white"/>
</svg>
