<svg width="101" height="69" viewBox="0 0 101 69" fill="none" xmlns="http://www.w3.org/2000/svg">
<path d="M79.5 21.5L69.5 31.5V40L64.5 44.5L70 49.5L79.5 40V21.5Z" fill="white"/>
<path d="M50.5 58V68.5L59.5 59.5L55 54L50.5 58Z" fill="white"/>
<path d="M50.5 41V55.5L56 51L67.5 64V50L62 44.5L68 38.5V30.5L79.5 19H88L101 5H79L51.5 32V41H50.5Z" fill="white"/>
<path d="M51.5 14V29.5L59.5 22V17.5L66.5 12V0.5L51.5 14Z" fill="white"/>
<path d="M21.5 21.5L31.5 31.5V40L36.5 44.5L31 49.5L21.5 40V21.5Z" fill="white"/>
<path d="M50.5 58V68.5L41.5 59.5L46 54L50.5 58Z" fill="white"/>
<path d="M50.5 41V55.5L45 51L33.5 64V50L39 44.5L33 38.5V30.5L21.5 19H13L0 5H22L49.5 32V41H50.5Z" fill="white"/>
<path d="M49.5 14V29.5L41.5 22V17.5L34.5 12V0.5L49.5 14Z" fill="white"/>
</svg>
